{"title":"Mr.Turner.2014.DVDScr.XviD.AC3-OSCARS2014","uid":11584651,"size":2435649425,"categoryP":"video","categoryS":"movies","magnet":"?xt=urn:btih:ccf9ef7d847890fffd4cd76279766c8d929d01a1&amp;dn=Mr.Turner.2014.DVDScr.XviD.AC3-OSCARS2014&amp;tr=udp%3A%2F%2Ftracker.openbittorrent.com%3A80&amp;tr=udp%3A%2F%2Fopen.demonii.com%3A1337&amp;tr=udp%3A%2F%2Ftracker.coppersurfer.tk%3A6969&amp;tr=udp%3A%2F%2Fexodus.desync.com%3A6969","seeders":3,"leechers":0,"uploader":"TvTeam","files":3,"time":1417156188,"description":" &lt;a href=&quot;https://www.torrenting.com&quot; rel=&quot;nofollow&quot; target=&quot;_NEW&quot;&gt;https://www.torrenting.com&lt;/a&gt;\n\nSign up is OPEN - for time being. Come and have fun.\n\n------------------------------------------------------------------Format                                   : AVI\nFormat/Info                              : Audio Video Interleave\nFormat profile                           : OpenDML\nFile size                                : 2.27 GiB\nDuration                                 : 2h 30mn\nOverall bit rate                         : 2 158 Kbps\nWriting application                      : Lavf56.13.100\nWriting library                          : VirtualDub build 35491/release\n\nVideo\nID                                       : 0\nFormat                                   : MPEG-4 Visual\nFormat profile                           : Simple@L5\nFormat settings, BVOP                    : No\nFormat settings, QPel                    : No\nFormat settings, GMC                     : No warppoints\nFormat settings, Matrix                  : Default (H.263)\nCodec ID                                 : XVID\nCodec ID/Hint                            : XviD\nDuration                                 : 2h 30mn\nBit rate                                 : 1 823 Kbps\nWidth                                    : 720 pixels\nHeight                                   : 356 pixels\nDisplay aspect ratio                     : 2.40:1\nFrame rate                               : 29.970 fps\nColor space                              : YUV\nChroma subsampling                       : 4:2:0\nBit depth                                : 8 bits\nScan type                                : Progressive\nCompression mode                         : Lossy\nBits/(Pixel*Frame)                       : 0.237\nStream size                              : 1.92 GiB (84%)\nWriting library                          : Lavc56.12.101\n\nAudio\nID                                       : 1\nFormat                                   : AC-3\nFormat/Info                              : Audio Coding 3\nMode extension                           : CM (complete main)\nFormat settings, Endianness              : Big\nCodec ID                                 : 2000\nDuration                                 : 2h 30mn\nBit rate mode                            : Constant\nBit rate                                 : 320 Kbps\nChannel(s)                               : 6 channels\nChannel positions                        : Front: L C R, Side: L R, LFE\nSampling rate                            : 48.0 KHz\nBit depth                                : 16 bits\nCompression mode                         : Lossy\nStream size                              : 344 MiB (15%)\nAlignment                                : Aligned on interleaves\nInterleave, duration                     : 33 ms (1.00 video frame)\nInterleave, preload duration             : 512 ms","torrent":{"xt":"urn:btih:ccf9ef7d847890fffd4cd76279766c8d929d01a1","amp;dn":"Mr.Turner.2014.DVDScr.XviD.AC3-OSCARS2014","amp;tr":["udp%3A%2F%2Ftracker.openbittorrent.com%3A80","udp%3A%2F%2Fopen.demonii.com%3A1337","udp%3A%2F%2Ftracker.coppersurfer.tk%3A6969","udp%3A%2F%2Fexodus.desync.com%3A6969"],"infoHash":"ccf9ef7d847890fffd4cd76279766c8d929d01a1","infoHashBuffer":{"type":"Buffer","data":[204,249,239,125,132,120,144,255,253,76,215,98,121,118,108,141,146,157,1,161]},"announce":[],"urlList":[]}}